<?xml version="1.0" encoding="UTF-8"?>
<svg width="800" height="200" viewBox="0 0 800 200" xmlns="http://www.w3.org/2000/svg" version="1.1">
  <style>
    .background {
      fill: url(#bgGradient);
    }

    .symbol {
      font: bold 24px monospace;
      opacity: 0.9;
      animation: float 6s ease-in-out infinite;
    }

    .symbol2 {
      font: bold 20px monospace;
      opacity: 0.6;
      animation: float2 8s ease-in-out infinite;
    }

    .star {
      fill: #ffffff;
      opacity: 0.4;
      animation: twinkle 2s infinite ease-in-out;
    }

    .creature {
      animation: float3 5s ease-in-out infinite alternate;
      transform-origin: center;
    }

    @keyframes float {
      0%, 100% { transform: translateY(0); }
      50% { transform: translateY(-8px); }
    }

    @keyframes float2 {
      0%, 100% { transform: translateY(0); }
      50% { transform: translateY(-5px); }
    }

    @keyframes float3 {
      0% { transform: translateY(0) scale(1) rotate(0deg); }
      50% { transform: translateY(-6px) scale(1.05) rotate(2deg); }
      100% { transform: translateY(0) scale(1) rotate(0deg); }
    }

    @keyframes twinkle {
      0%, 100% { opacity: 0.2; }
      50% { opacity: 0.6; }
    }
  </style>

  <defs>
    <linearGradient id="bgGradient" x1="0%" y1="0%" x2="100%" y2="100%">
      <stop offset="0%" style="stop-color:#1a002d; stop-opacity:1" />
      <stop offset="100%" style="stop-color:#3d004d; stop-opacity:1" />
    </linearGradient>
  </defs>

  <rect width="800" height="200" class="background" />

  <!-- Symbols -->
  <text x="50" y="100" fill="#ff99ff" class="symbol">{{}}</text>
  <text x="150" y="130" fill="#cc66ff" class="symbol2">&lt;/&gt;</text>
  <text x="250" y="80" fill="#ff66cc" class="symbol">[]</text>
  <text x="350" y="120" fill="#e066ff" class="symbol2">&lt;>&lt;/&gt;</text>
  <text x="450" y="90" fill="#ff33cc" class="symbol">()</text>
  <text x="600" y="100" fill="#ff99ff" class="symbol">function()</text>
  <text x="680" y="150" fill="#ffccff" class="symbol2">console.log()</text>

  <!-- Stars -->
  <circle cx="100" cy="20" r="2" class="star"/>
  <circle cx="300" cy="50" r="1.5" class="star"/>
  <circle cx="500" cy="30" r="2.2" class="star"/>
  <circle cx="700" cy="60" r="1.8" class="star"/>
  <circle cx="650" cy="10" r="2" class="star"/>
  <circle cx="400" cy="15" r="1.7" class="star"/>

  <!-- Creature 1 -->
  <g class="creature" transform="translate(150,115)">
    <ellipse cx="0" cy="0" rx="14" ry="18" fill="#ff33cc"/>
    <path d="M -8 14 Q -8 22 -7 30" stroke="#ff33cc" stroke-width="1.5" fill="none"/>
    <path d="M -4 14 Q -4 22 -3 30" stroke="#ff33cc" stroke-width="1.5" fill="none"/>
    <path d="M 0 14 Q 0 22 1 30" stroke="#ff33cc" stroke-width="1.5" fill="none"/>
    <path d="M 4 14 Q 4 22 3 30" stroke="#ff33cc" stroke-width="1.5" fill="none"/>
    <path d="M 8 14 Q 8 22 7 30" stroke="#ff33cc" stroke-width="1.5" fill="none"/>
    <path d="M -14 -4 Q -24 -12 -16 -26 Q -8 -12 -14 -4 Z" fill="#cc66ff"/>
    <path d="M 14 -4 Q 24 -12 16 -26 Q 8 -12 14 -4 Z" fill="#cc66ff"/>
    <circle cx="0" cy="-2" r="9" fill="#1a002d" stroke="#ff99ff" stroke-width="2"/>
    <circle cx="0" cy="-2" r="3" fill="#ff99ff"/>
  </g>

  <!-- Creature 2 -->
  <g class="creature" transform="translate(600,120)">
    <ellipse cx="0" cy="0" rx="16" ry="20" fill="#dd33ff"/>
    <path d="M -9 16 Q -9 24 -8 32" stroke="#dd33ff" stroke-width="1.5" fill="none"/>
    <path d="M -5 16 Q -5 24 -4 32" stroke="#dd33ff" stroke-width="1.5" fill="none"/>
    <path d="M 0 16 Q 0 24 1 32" stroke="#dd33ff" stroke-width="1.5" fill="none"/>
    <path d="M 5 16 Q 5 24 4 32" stroke="#dd33ff" stroke-width="1.5" fill="none"/>
    <path d="M 9 16 Q 9 24 8 32" stroke="#dd33ff" stroke-width="1.5" fill="none"/>
    <path d="M -16 -6 Q -26 -14 -18 -28 Q -10 -14 -16 -6 Z" fill="#cc33ff"/>
    <path d="M 16 -6 Q 26 -14 18 -28 Q 10 -14 16 -6 Z" fill="#cc33ff"/>
    <circle cx="0" cy="-2" r="10" fill="#1a002d" stroke="#ffccff" stroke-width="2"/>
    <circle cx="0" cy="-2" r="3.5" fill="#ffccff"/>
  </g>
</svg>
